<?xml version="1.0" encoding="utf-8"?>
<!-- Generator: Adobe Illustrator 19.0.0, SVG Export Plug-In . SVG Version: 6.00 Build 0)  -->
<svg version="1.1" id="Chevron_thin_left" xmlns="http://www.w3.org/2000/svg" xmlns:xlink="http://www.w3.org/1999/xlink" x="0px"
	 y="0px" viewBox="-189 291 56 56" style="enable-background:new -189 291 56 56;" xml:space="preserve">
<style type="text/css">
	.st0{fill:#B2967A;}
	.st1{opacity:0.4;fill:#FFFFFF;}
</style>
<rect x="-189" y="291" width="56" height="56"/>
<g id="over">
	<path id="left_1_" class="st0" d="M-166.6,335.4c0.3,0.3,0.3,0.7,0,1c-0.3,0.3-0.7,0.3-1,0l-7.8-7.9c-0.3-0.3-0.3-0.7,0-1l7.8-7.9
		c0.3-0.3,0.7-0.3,1,0c0.3,0.3,0.3,0.7,0,1l-7.1,7.4L-166.6,335.4z"/>
	<path id="right_1_" class="st0" d="M-148.3,328l-7.1-7.4c-0.3-0.3-0.3-0.7,0-1c0.3-0.3,0.7-0.3,1,0l7.8,7.9c0.3,0.3,0.3,0.7,0,1
		l-7.8,7.9c-0.3,0.3-0.7,0.3-1,0c-0.3-0.3-0.3-0.7,0-1L-148.3,328z"/>
</g>
<g id="up">
	<path id="left" class="st1" d="M-166.6,312.4c0.3,0.3,0.3,0.7,0,1c-0.3,0.3-0.7,0.3-1,0l-7.8-7.9c-0.3-0.3-0.3-0.7,0-1l7.8-7.9
		c0.3-0.3,0.7-0.3,1,0c0.3,0.3,0.3,0.7,0,1l-7.1,7.4L-166.6,312.4z"/>
	<path id="right" class="st1" d="M-148.3,305l-7.1-7.4c-0.3-0.3-0.3-0.7,0-1c0.3-0.3,0.7-0.3,1,0l7.8,7.9c0.3,0.3,0.3,0.7,0,1
		l-7.8,7.9c-0.3,0.3-0.7,0.3-1,0c-0.3-0.3-0.3-0.7,0-1L-148.3,305z"/>
</g>
</svg>
